#!OML:ASF H:\Dans Jumps\Project 1\Capture day 1\Session 1\subject.ASF
:FULLY-SPECIFIED
:DEGREES
125
root 0.342046 17.1616 -14.614 9.88686 -1.61543 -1.45818
lowerback 7.2966 -0.00337168 -0.515496
upperback 7.96472 -0.0792246 1.7787
thorax 4.18015 -0.122512 2.13584
lowerneck -12.9162 0.890177 -0.952811
upperneck 30.0566 1.69179 -0.600674
head 11.9957 0.565138 0.173923
rclavicle -4.37326e-015 -7.95139e-015
rhumerus -44.2897 -13.8687 -69.9973
rradius 32.217
rwrist 22.1269
rhand -20.4292 -25.0131
rfingers 7.12502
rthumb 5.92548 -54.9102
lclavicle -4.37326e-015 -7.95139e-015
lhumerus -41.0566 -0.793799 84.6224
lradius 25.6171
lwrist 21.973
lhand -30.3461 -7.97964
lfingers 7.12502
lthumb -3.65169 21.9688
rfemur -29.2279 -2.46124 19.7472
rtibia 37.0383
rfoot -16.2771 -4.44905
rtoes 4.92566
lfemur -28.3847 8.57745 -19.7803
ltibia 35.5473
lfoot -14.7999 5.66326
ltoes 3.05031
126
root 0.344756 17.1451 -14.6257 9.92232 -1.66157 -1.45212
lowerback 7.47062 0.0135093 -0.514137
upperback 8.04023 -0.0566195 1.75466
thorax 4.16261 -0.110946 2.10971
lowerneck -12.9724 0.893479 -0.939084
upperneck 29.8767 1.69617 -0.616862
head 11.936 0.568085 0.165958
rclavicle 2.28602e-015 1.37161e-014
rhumerus -45.1521 -13.9356 -69.5427
rradius 32.0124
rwrist 22.5339
rhand -20.5994 -25.0357
rfingers 7.12502
rthumb 5.76109 -54.9374
lclavicle 2.28602e-015 1.37161e-014
lhumerus -41.8855 -0.596204 84.4239
lradius 25.4197
lwrist 22.0264
lhand -30.1406 -7.54105
lfingers 7.12502
lthumb -3.45322 22.4107
rfemur -29.5248 -2.43183 19.7337
rtibia 37.4221
rfoot -16.3946 -4.48368
rtoes 4.79571
lfemur -28.6788 8.63667 -19.8199
ltibia 35.9436
lfoot -14.9285 5.71334
ltoes 2.97375
127
root 0.347513 17.1285 -14.6375 9.94847 -1.70172 -1.45071
lowerback 7.65126 0.0284912 -0.506753
upperback 8.12622 -0.0364411 1.73163
thorax 4.15279 -0.100442 2.08132
lowerneck -13.042 0.895746 -0.925024
upperneck 29.6941 1.69929 -0.633608
head 11.8782 0.570402 0.157655
rclavicle 5.1684e-015 5.56597e-015
rhumerus -46.0281 -14.0011 -69.0806
rradius 31.8186
rwrist 22.9213
rhand -20.7155 -25.0758
rfingers 7.12502
rthumb 5.64908 -54.9805
lclavicle 5.1684e-015 5.56597e-015
lhumerus -42.7262 -0.416173 84.2374
lradius 25.214
lwrist 22.137
lhand -29.9724 -7.14908
lfingers 7.12502
lthumb -3.29084 22.8053
rfemur -29.8083 -2.40905 19.7259
rtibia 37.8027
rfoot -16.5148 -4.52022
rtoes 4.65651
lfemur -28.9652 8.69712 -19.8534
ltibia 36.3438
lfoot -15.0625 5.75358
ltoes 2.90197
128
root 0.350357 17.1117 -14.6497 9.96593 -1.73369 -1.45464
lowerback 7.84331 0.0405105 -0.49283
upperback 8.2193 -0.0200138 1.71117
thorax 4.14449 -0.0916079 2.05206
lowerneck -13.1155 0.896645 -0.91721
upperneck 29.5033 1.70098 -0.647057
head 11.8182 0.571859 0.15149
rclavicle -2.5842e-015 -1.17283e-014
rhumerus -46.921 -14.0557 -68.6135
rradius 31.6492
rwrist 23.2366
rhand -20.7454 -25.1419
rfingers 7.12502
rthumb 5.62012 -55.0474
lclavicle -2.5842e-015 -1.17283e-014
lhumerus -43.591 -0.259713 84.0729
lradius 24.9923
lwrist 22.2584
lhand -29.9098 -6.95085
lfingers 7.12502
lthumb -3.23034 23.0044
rfemur -30.0791 -2.395 19.725
rtibia 38.1804
rfoot -16.6381 -4.55704
rtoes 4.52496
lfemur -29.2448 8.75588 -19.8797
ltibia 36.7484
lfoot -15.2026 5.7843
ltoes 2.83183
129
root 0.353234 17.0947 -14.6622 9.97524 -1.76072 -1.46393
lowerback 8.0479 0.050534 -0.475029
upperback 8.3172 -0.00613547 1.69416
thorax 4.1347 -0.0839707 2.02428
lowerneck -13.1949 0.89863 -0.906154
upperneck 29.3098 1.70565 -0.668022
head 11.7587 0.574065 0.142433
rclavicle 1.98785e-016 -6.75868e-015
rhumerus -47.8376 -14.0951 -68.1394
rradius 31.5022
rwrist 23.4751
rhand -20.7173 -25.216
rfingers 7.12502
rthumb 5.64732 -55.1207
lclavicle 1.98785e-016 -6.75868e-015
lhumerus -44.4803 -0.0914509 83.9034
lradius 24.7862
lwrist 22.3837
lhand -29.8139 -6.68118
lfingers 7.12502
lthumb -3.13778 23.2755
rfemur -30.3405 -2.38709 19.7309
rtibia 38.5573
rfoot -16.7628 -4.59514
rtoes 4.39048
lfemur -29.5192 8.81267 -19.8989
ltibia 37.1582
lfoot -15.3461 5.81483
ltoes 2.75504
130
root 0.356079 17.0774 -14.6751 9.9813 -1.78528 -1.4762
lowerback 8.26253 0.0605859 -0.455671
upperback 8.41686 0.0078487 1.67955
thorax 4.12144 -0.0762528 1.99807
lowerneck -13.2681 0.900417 -0.900804
upperneck 29.1044 1.7106 -0.687001
head 11.6934 0.576176 0.135098
rclavicle -4.47266e-015 -1.59028e-015
rhumerus -48.7787 -14.1214 -67.6605
rradius 31.3662
rwrist 23.6282
rhand -20.6678 -25.2721
rfingers 7.12502
rthumb 5.69506 -55.1756
lclavicle -4.47266e-015 -1.59028e-015
lhumerus -45.4029 0.0683529 83.7451
lradius 24.5701
lwrist 22.4479
lhand -29.7904 -6.64057
lfingers 7.12502
lthumb -3.11508 23.3164
rfemur -30.6004 -2.38132 19.7408
rtibia 38.9363
rfoot -16.8883 -4.63437
rtoes 4.25976
lfemur -29.7949 8.86729 -19.9146
ltibia 37.574
lfoot -15.4923 5.84753
ltoes 2.68254
131
root 0.358908 17.0597 -14.6885 9.98471 -1.80963 -1.48914
lowerback 8.486 0.0715338 -0.438973
upperback 8.51638 0.0229011 1.66765
thorax 4.10337 -0.0681828 1.97607
lowerneck -13.3379 0.902903 -0.896112
upperneck 28.8931 1.7181 -0.711201
head 11.6254 0.578798 0.12629
rclavicle 7.95139e-016 1.98785e-015
rhumerus -49.75 -14.1338 -67.1734
rradius 31.2398
rwrist 23.7202
rhand -20.6166 -25.3144
rfingers 7.12502
rthumb 5.74454 -55.2166
lclavicle 7.95139e-016 1.98785e-015
lhumerus -46.3683 0.234223 83.5878
lradius 24.3638
lwrist 22.4393
lhand -29.8009 -6.74418
lfingers 7.12502
lthumb -3.12517 23.2127
rfemur -30.8616 -2.37495 19.7513
rtibia 39.3192
rfoot -17.0124 -4.67621
rtoes 4.12261
lfemur -30.0733 8.91874 -19.9295
ltibia 37.9958
lfoot -15.6377 5.88651
ltoes 2.6012
132
root 0.361698 17.0416 -14.7021 9.99007 -1.83575 -1.50203
lowerback 8.71248 0.0849732 -0.423616
upperback 8.6144 0.0412394 1.65601
thorax 4.08217 -0.0585102 1.95485
lowerneck -13.4051 0.905203 -0.889715
upperneck 28.6793 1.72513 -0.736686
head 11.5563 0.581303 0.116664
rclavicle 7.95139e-016 -8.94531e-015
rhumerus -50.7628 -14.1336 -66.6754
rradius 31.105
rwrist 23.8251
rhand -20.6639 -25.2749
rfingers 7.12502
rthumb 5.69889 -55.1782
lclavicle 7.95139e-016 -8.94531e-015
lhumerus -47.3781 0.39432 83.4316
lradius 24.1815
lwrist 22.3919
lhand -29.7966 -6.89278
lfingers 7.12502
lthumb -3.12099 23.0641
rfemur -31.1305 -2.36478 19.7617
rtibia 39.708
rfoot -17.135 -4.72158
rtoes 3.97787
lfemur -30.3597 8.9674 -19.9452
ltibia 38.4232
lfoot -15.7803 5.93267
ltoes 2.51541
133
root 0.364476 17.023 -14.716 9.99809 -1.86174 -1.5125
lowerback 8.93868 0.101017 -0.409603
upperback 8.71043 0.0630376 1.64321
thorax 4.05912 -0.0471034 1.93291
lowerneck -13.4695 0.906458 -0.882314
upperneck 28.4644 1.72991 -0.760825
head 11.4864 0.58313 0.107075
rclavicle 5.36719e-015 1.74931e-014
rhumerus -51.8156 -14.127 -66.1669
rradius 30.9677
rwrist 23.9332
rhand -20.7429 -25.2013
rfingers 7.12502
rthumb 5.62259 -55.1067
lclavicle 5.36719e-015 1.74931e-014
lhumerus -48.4348 0.528569 83.2874
lradius 24.0274
lwrist 22.3446
lhand -29.7992 -7.07688
lfingers 7.12502
lthumb -3.12356 22.88
rfemur -31.408 -2.35463 19.7695
rtibia 40.1037
rfoot -17.2567 -4.7696
rtoes 3.81903
lfemur -30.6542 9.01272 -19.9648
ltibia 38.8549
lfoot -15.9183 5.98559
ltoes 2.41682
134
root 0.367222 17.004 -14.73 10.0145 -1.8887 -1.52141
lowerback 9.15736 0.119362 -0.396455
upperback 8.80286 0.0878939 1.62924
thorax 4.03652 -0.0341415 1.90997
lowerneck -13.5385 0.906042 -0.877087
upperneck 28.256 1.73117 -0.778662
head 11.4202 0.583854 0.0997713
rclavicle -3.97569e-015 -1.19271e-014
rhumerus -52.9128 -14.1004 -65.6542
rradius 30.8465
rwrist 24.0285
rhand -20.8155 -25.1166
rfingers 7.12502
rthumb 5.55245 -55.0239
lclavicle -3.97569e-015 -1.19271e-014
lhumerus -49.5387 0.61771 83.1717
lradius 23.9012
lwrist 22.3507
lhand -29.8215 -7.28718
lfingers 7.12502
lthumb -3.14511 22.6694
rfemur -31.7009 -2.34317 19.7762
rtibia 40.507
rfoot -17.3774 -4.81903
rtoes 3.6588
lfemur -30.9628 9.05669 -19.9884
ltibia 39.2901
lfoot -16.0509 6.04508
ltoes 2.29861
135
root 0.370005 16.9845 -14.7441 10.0393 -1.91376 -1.52658
lowerback 9.36835 0.13912 -0.383279
upperback 8.88871 0.114754 1.61296
thorax 4.01126 -0.0200221 1.88434
lowerneck -13.6058 0.902994 -0.875525
upperneck 28.0578 1.72726 -0.787964
head 11.3577 0.582849 0.0955606
rclavicle 7.25564e-015 1.19271e-015
rhumerus -54.0573 -14.0567 -65.1321
rradius 30.7317
rwrist 24.1395
rhand -20.9085 -25.0153
rfingers 7.12502
rthumb 5.46269 -54.9249
lclavicle 7.25564e-015 1.19271e-015
lhumerus -50.6921 0.645842 83.0958
lradius 23.7967
lwrist 22.4509
lhand -29.8641 -7.53307
lfingers 7.12502
lthumb -3.18622 22.4229
rfemur -32.009 -2.33796 19.7802
rtibia 40.9192
rfoot -17.5015 -4.86685
rtoes 3.50375
lfemur -31.2836 9.09468 -20.0175
ltibia 39.7274
lfoot -16.1804 6.10939
ltoes 2.17825
136
root 0.372796 16.9646 -14.7583 10.0729 -1.93543 -1.52701
lowerback 9.56945 0.159126 -0.37083
upperback 8.96891 0.142016 1.59408
thorax 3.98562 -0.0055938 1.85626
lowerneck -13.6702 0.896173 -0.884362
upperneck 27.8674 1.71681 -0.783511
head 11.2976 0.579447 0.0972878
rclavicle 1.98785e-015 1.78906e-015
rhumerus -55.2399 -14.0057 -64.5903
rradius 30.6077
rwrist 24.2726
rhand -20.9842 -24.8999
rfingers 7.12502
rthumb 5.38962 -54.8114
lclavicle 1.98785e-015 1.78906e-015
lhumerus -51.8899 0.62953 83.0503
lradius 23.7055
lwrist 22.638
lhand -29.8974 -7.77752
lfingers 7.12502
lthumb -3.21833 22.1779
rfemur -32.3323 -2.34158 19.7809
rtibia 41.3401
rfoot -17.629 -4.91357
rtoes 3.34613
lfemur -31.6155 9.12651 -20.0529
ltibia 40.1659
lfoot -16.3098 6.1755
ltoes 2.06256
137
root 0.375828 16.9443 -14.7727 10.1143 -1.95194 -1.52053
lowerback 9.76426 0.177524 -0.359733
upperback 9.04575 0.167185 1.57234
thorax 3.96012 0.00785487 1.82596
lowerneck -13.7458 0.887116 -0.906476
upperneck 27.6832 1.70405 -0.768861
head 11.2421 0.574777 0.104772
rclavicle 2.48481e-015 1.45113e-014
rhumerus -56.4566 -13.9412 -64.0349
rradius 30.4765
rwrist 24.4211
rhand -21.0755 -24.787
rfingers 7.12502
rthumb 5.30145 -54.7007
lclavicle 2.48481e-015 1.45113e-014
lhumerus -53.1176 0.596593 83.0151
lradius 23.6077
lwrist 22.8787
lhand -29.8952 -7.9989
lfingers 7.12502
lthumb -3.21627 21.9566
rfemur -32.6703 -2.35825 19.7755
rtibia 41.7694
rfoot -17.7604 -4.95603
rtoes 3.19129
lfemur -31.9576 9.14757 -20.0968
ltibia 40.6052
lfoot -16.4394 6.24493
ltoes 1.95107
